<svg xmlns="http://www.w3.org/2000/svg" xmlns:xlink="http://www.w3.org/1999/xlink" viewBox="0 0 1160.74 1005.23"><defs><style>.cls-1{fill:#192028;}.cls-2{fill:url(#linear-gradient);}.cls-3{fill:url(#linear-gradient-2);}.cls-4{fill:url(#linear-gradient-3);}.cls-5{fill:url(#linear-gradient-4);}.cls-6{fill:url(#linear-gradient-5);}.cls-7{fill:url(#linear-gradient-6);}.cls-8{fill:url(#linear-gradient-7);}.cls-9{fill:url(#linear-gradient-8);}.cls-10{fill:url(#linear-gradient-9);}</style><linearGradient id="linear-gradient" x1="292.78" y1="249.93" x2="581.37" y2="249.93" gradientUnits="userSpaceOnUse"><stop offset="0" stop-color="#b78628"/><stop offset="1" stop-color="#c69320" stop-opacity="0.5"/></linearGradient><linearGradient id="linear-gradient-2" x1="580.37" y1="249.92" x2="868.95" y2="249.92" xlink:href="#linear-gradient"/><linearGradient id="linear-gradient-3" x1="0" y1="920.39" x2="580.37" y2="920.39" xlink:href="#linear-gradient"/><linearGradient id="linear-gradient-4" x1="1" y1="754.61" x2="290.92" y2="754.61" xlink:href="#linear-gradient"/><linearGradient id="linear-gradient-5" x1="580.37" y1="920.39" x2="1160.74" y2="920.39" xlink:href="#linear-gradient"/><linearGradient id="linear-gradient-6" x1="870.82" y1="754.62" x2="1160.74" y2="754.62" xlink:href="#linear-gradient"/><linearGradient id="linear-gradient-7" x1="290.59" y1="501.39" x2="870.16" y2="501.39" xlink:href="#linear-gradient"/><linearGradient id="linear-gradient-8" x1="580.37" y1="753.58" x2="871.36" y2="753.58" xlink:href="#linear-gradient"/><linearGradient id="linear-gradient-9" x1="289.39" y1="753.58" x2="580.37" y2="753.58" xlink:href="#linear-gradient"/></defs><title>Asset 5</title><g id="Layer_2" data-name="Layer 2"><g id="Layer_1-2" data-name="Layer 1"><polygon class="cls-1" points="581.37 0 581.37 333.23 292.78 499.85 581.37 0"/><path class="cls-2" d="M562.37,70.91V322.26L344.69,447.94l217.68-377M581.37,0,292.78,499.85,581.37,333.23V0Z"/><polygon class="cls-1" points="868.95 499.84 580.37 333.23 580.37 0 868.95 499.84"/><path class="cls-3" d="M599.37,70.91,817,447.93,599.37,322.26V70.91M580.37,0V333.23L869,499.84,580.37,0Z"/><polygon class="cls-1" points="580.37 1004.23 0 1004.23 289.92 836.54 580.37 1004.23"/><path class="cls-4" d="M289.93,858.48,509.46,985.23H70.8L289.93,858.48m0-21.94L0,1004.23H580.37L289.92,836.54Z"/><polygon class="cls-1" points="290.92 837.54 1 1005.23 290.39 503.99 290.39 837.23 290.92 837.54"/><path class="cls-5" d="M271.39,574.9v252L53,953.22,271.39,574.9m19-70.91L1,1005.23,290.92,837.54l-.53-.31V504Z"/><polygon class="cls-1" points="870.82 836.54 580.37 1004.23 1160.74 1004.23 870.82 836.54"/><path class="cls-6" d="M870.81,858.48l219.13,126.75H651.28L870.81,858.48m0-21.94L580.37,1004.23h580.37L870.82,836.54Z"/><polygon class="cls-1" points="1160.74 1005.23 870.82 837.54 871.36 837.23 871.36 504.01 1160.74 1005.23"/><path class="cls-7" d="M890.36,574.92l218.42,378.3L890.36,826.89v-252m-19-70.91V837.23l-.54.31,289.92,167.69L871.36,504Z"/><polygon class="cls-1" points="870.16 501.93 580.37 669.54 290.59 501.92 291.78 499.85 580.37 333.23 868.95 499.84 870.16 501.93"/><path class="cls-8" d="M580.37,355.17l253,146.08-253,146.34-253-146.35,253-146.07m0-21.94L291.78,499.85l-1.19,2.07L580.37,669.54,870.16,501.93,869,499.84,580.37,333.23Z"/><polygon class="cls-1" points="871.36 504.01 871.36 837.23 870.82 837.54 580.37 1005.23 580.37 669.54 870.16 501.93 871.36 504.01"/><path class="cls-9" d="M852.36,534.17V826.26l-253,146.06V680.5l253-146.33m17.8-32.24L580.37,669.54v335.69L870.82,837.54l.54-.31V504l-1.2-2.08Z"/><polygon class="cls-1" points="580.37 669.54 580.37 1005.23 289.92 837.54 289.39 837.23 289.39 503.99 290.59 501.92 580.37 669.54"/><path class="cls-10" d="M308.39,534.17l253,146.33V972.32l-253-146.06V534.17m-17.8-32.25-1.2,2.07V837.23l.53.31,290.45,167.69V669.54L290.59,501.92Z"/></g></g></svg>