<svg xmlns="http://www.w3.org/2000/svg" xmlns:xlink="http://www.w3.org/1999/xlink" id="Pancake_1" x="0px" y="0px" viewBox="0 0 300 144.9" style="enable-background:new 0 0 300 144.9;" xml:space="preserve"><style type="text/css">	.pk0{fill:url(#PKSVGID_1_);}	.pk1{fill-rule:evenodd;clip-rule:evenodd;fill:#633001;}	.pk2{fill:#D1884F;}	.pk3{fill:#FEDC90;}	.pk4{fill:#633001;}	.pk5{fill:#FFFFFF;}</style><g>			<linearGradient id="PKSVGID_1_" gradientUnits="userSpaceOnUse" x1="150" y1="176" x2="150" y2="80" gradientTransform="matrix(1 0 0 -1 0 176)">		<stop offset="0" style="stop-color:#53DEE9"></stop>		<stop offset="1" style="stop-color:#1FC7D4"></stop>	</linearGradient>	<circle class="pk0" cx="150" cy="48" r="48"></circle>	<path class="pk1" d="M149.86,79.87c-9.34-0.01-16.87-2.25-22.12-6.28c-5.32-4.07-8.14-9.86-8.14-16.4c0-6.3,2.82-10.85,6-13.92  c2.5-2.41,5.25-3.95,7.17-4.84c-0.43-1.33-0.98-3.08-1.46-4.88c-0.65-2.41-1.28-5.24-1.28-7.31c0-2.45,0.53-4.92,1.98-6.83  c1.52-2.02,3.82-3.1,6.57-3.1c2.16,0,3.99,0.8,5.42,2.18c1.37,1.32,2.28,3.07,2.91,4.9c1.11,3.21,1.54,7.24,1.66,11.26h2.64  c0.12-4.02,0.55-8.05,1.66-11.26c0.63-1.83,1.54-3.58,2.91-4.9c1.43-1.38,3.26-2.18,5.42-2.18c2.76,0,5.05,1.08,6.57,3.1  c1.44,1.91,1.98,4.38,1.98,6.83c0,2.07-0.64,4.9-1.28,7.31c-0.48,1.8-1.03,3.54-1.46,4.88c1.92,0.89,4.68,2.43,7.17,4.84  c3.19,3.07,6,7.62,6,13.92c0,6.54-2.82,12.33-8.14,16.4c-5.26,4.03-12.78,6.27-22.12,6.28H149.86z"></path>	<path class="pk2" d="M138.57,18.65c-4.04,0-5.9,3.04-5.9,7.26c0,3.35,2.16,10.05,3.05,12.66c0.2,0.59-0.11,1.23-0.69,1.46  c-3.24,1.29-12.79,6.01-12.79,16.83c0,11.39,9.71,19.98,27.62,20c0.01,0,0.01,0,0.02,0c0.01,0,0.01,0,0.02,0  c17.91-0.01,27.62-8.6,27.62-20c0-10.82-9.56-15.54-12.79-16.83c-0.57-0.23-0.88-0.87-0.69-1.46c0.89-2.61,3.05-9.31,3.05-12.66  c0-4.21-1.86-7.26-5.9-7.26c-5.82,0-7.27,8.32-7.37,17.25c-0.01,0.6-0.48,1.08-1.07,1.08h-5.73c-0.59,0-1.07-0.48-1.07-1.08  C145.84,26.98,144.39,18.65,138.57,18.65z"></path>	<path class="pk3" d="M149.9,73.2c-13.16,0-27.64-7.12-27.66-16.33c0,0.01,0,0.03,0,0.04c0,11.4,9.73,20,27.66,20  c17.94,0,27.66-8.59,27.66-20c0-0.01,0-0.03,0-0.04C177.54,66.09,163.06,73.2,149.9,73.2z"></path>	<path class="pk4" d="M142.59,54.05c0,3.11-1.45,4.73-3.25,4.73c-1.79,0-3.25-1.62-3.25-4.73s1.45-4.73,3.25-4.73  C141.14,49.32,142.59,50.94,142.59,54.05z"></path>	<path class="pk4" d="M163.71,54.05c0,3.11-1.45,4.73-3.25,4.73c-1.79,0-3.25-1.62-3.25-4.73s1.45-4.73,3.25-4.73  C162.26,49.32,163.71,50.94,163.71,54.05z"></path></g><g>	<path class="pk5" d="M2.31,135.94c-0.86,0-1.46-0.18-1.82-0.53C0.16,135.05,0,134.49,0,133.72v-25.69c0-0.77,0.18-1.33,0.53-1.69  c0.35-0.38,0.95-0.58,1.77-0.58h10.87c4.14,0,7.19,0.87,9.14,2.62c1.95,1.75,2.93,4.35,2.93,7.81c0,3.43-0.98,6.02-2.93,7.76  c-1.92,1.72-4.97,2.57-9.14,2.57H8.96v7.19c0,0.77-0.18,1.33-0.53,1.69c-0.35,0.35-0.96,0.53-1.82,0.53H2.31z M12.47,120.1  c1.21,0,2.14-0.33,2.8-0.98c0.68-0.65,1.02-1.63,1.02-2.93c0-1.33-0.34-2.32-1.02-2.97c-0.65-0.65-1.58-0.98-2.8-0.98h-3.5v7.85  H12.47z"></path>	<path class="pk5" d="M35.72,136.6c-2.78,0-5.01-0.89-6.7-2.66c-1.66-1.8-2.48-4.33-2.48-7.59c0-2.48,0.56-4.66,1.69-6.52  c1.15-1.86,2.77-3.3,4.84-4.3c2.1-1.04,4.51-1.55,7.23-1.55c2.25,0,4.23,0.25,5.95,0.75c1.75,0.47,3.34,1.17,4.79,2.09v17.75  c0,0.56-0.1,0.93-0.31,1.11c-0.21,0.18-0.62,0.27-1.24,0.27h-4.53c-0.33,0-0.58-0.04-0.75-0.13c-0.18-0.12-0.33-0.3-0.44-0.53  l-0.58-1.33c-0.86,0.92-1.89,1.58-3.11,2C38.89,136.38,37.44,136.6,35.72,136.6z M39.05,130.57c1.15,0,2.06-0.28,2.71-0.84  c0.65-0.56,0.98-1.36,0.98-2.4v-6.92c-0.56-0.27-1.27-0.4-2.13-0.4c-1.57,0-2.82,0.55-3.77,1.64c-0.92,1.09-1.38,2.63-1.38,4.61  C35.45,129.13,36.65,130.57,39.05,130.57z"></path>	<path class="pk5" d="M57.2,135.94c-0.86,0-1.46-0.18-1.82-0.53c-0.35-0.35-0.53-0.92-0.53-1.69v-17.7c0-0.53,0.09-0.89,0.27-1.06  c0.21-0.21,0.62-0.31,1.24-0.31h4.57c0.35,0,0.62,0.06,0.8,0.18c0.21,0.09,0.33,0.27,0.35,0.53l0.22,1.33  c0.83-0.83,1.91-1.48,3.24-1.95c1.36-0.5,2.87-0.75,4.53-0.75c2.4,0,4.33,0.68,5.81,2.04c1.48,1.33,2.22,3.31,2.22,5.94v11.76  c0,0.77-0.18,1.33-0.53,1.69c-0.33,0.35-0.92,0.53-1.77,0.53h-4.3c-0.86,0-1.48-0.18-1.86-0.53c-0.35-0.35-0.53-0.92-0.53-1.69  v-11.18c0-0.89-0.19-1.52-0.58-1.91c-0.38-0.38-0.99-0.58-1.82-0.58c-0.89,0-1.6,0.24-2.13,0.71c-0.5,0.47-0.75,1.12-0.75,1.95v11  c0,0.77-0.18,1.33-0.53,1.69c-0.33,0.35-0.92,0.53-1.77,0.53H57.2z"></path>	<path class="pk5" d="M93.78,136.6c-4.14,0-7.34-0.96-9.58-2.88c-2.25-1.92-3.37-4.72-3.37-8.39c0-2.25,0.52-4.23,1.55-5.94  c1.04-1.72,2.53-3.05,4.48-3.99c1.98-0.95,4.32-1.42,7.01-1.42c2.04,0,3.76,0.19,5.15,0.58c1.42,0.38,2.68,0.98,3.77,1.77  c0.33,0.21,0.49,0.47,0.49,0.8c0,0.24-0.12,0.55-0.35,0.93l-1.82,3.15c-0.21,0.41-0.46,0.62-0.75,0.62c-0.18,0-0.46-0.12-0.84-0.35  c-0.8-0.5-1.55-0.87-2.26-1.11c-0.68-0.24-1.54-0.35-2.57-0.35c-1.48,0-2.68,0.47-3.59,1.42c-0.89,0.95-1.33,2.25-1.33,3.9  c0,1.69,0.46,2.99,1.38,3.9c0.92,0.89,2.17,1.33,3.77,1.33c0.95,0,1.8-0.13,2.57-0.4c0.77-0.27,1.55-0.64,2.35-1.11  c0.41-0.24,0.71-0.35,0.89-0.35c0.27,0,0.5,0.21,0.71,0.62l2,3.42c0.15,0.3,0.22,0.53,0.22,0.71c0,0.27-0.18,0.52-0.53,0.75  c-1.24,0.8-2.6,1.39-4.08,1.77C97.56,136.39,95.82,136.6,93.78,136.6z"></path>	<path class="pk5" d="M114.88,136.6c-2.78,0-5.01-0.89-6.7-2.66c-1.66-1.8-2.48-4.33-2.48-7.59c0-2.48,0.56-4.66,1.69-6.52  c1.15-1.86,2.77-3.3,4.84-4.3c2.1-1.04,4.51-1.55,7.23-1.55c2.25,0,4.23,0.25,5.94,0.75c1.75,0.47,3.34,1.17,4.79,2.09v17.75  c0,0.56-0.1,0.93-0.31,1.11c-0.21,0.18-0.62,0.27-1.24,0.27h-4.53c-0.33,0-0.58-0.04-0.75-0.13c-0.18-0.12-0.33-0.3-0.44-0.53  l-0.58-1.33c-0.86,0.92-1.89,1.58-3.11,2C118.04,136.38,116.59,136.6,114.88,136.6z M118.2,130.57c1.15,0,2.06-0.28,2.71-0.84  c0.65-0.56,0.98-1.36,0.98-2.4v-6.92c-0.56-0.27-1.27-0.4-2.13-0.4c-1.57,0-2.82,0.55-3.77,1.64c-0.92,1.09-1.38,2.63-1.38,4.61  C114.61,129.13,115.81,130.57,118.2,130.57z"></path>	<path class="pk5" d="M158.05,134.25c0.21,0.24,0.31,0.5,0.31,0.8c0,0.27-0.09,0.49-0.27,0.67c-0.18,0.15-0.41,0.22-0.71,0.22h-6.88  c-0.41,0-0.72-0.03-0.93-0.09c-0.18-0.09-0.37-0.25-0.58-0.49l-6.03-8.21v6.57c0,0.77-0.18,1.33-0.53,1.69  c-0.35,0.35-0.96,0.53-1.82,0.53h-4.3c-0.86,0-1.46-0.18-1.82-0.53c-0.33-0.35-0.49-0.92-0.49-1.69v-25.69  c0-0.77,0.18-1.33,0.53-1.69c0.35-0.38,0.95-0.58,1.77-0.58h4.3c0.86,0,1.46,0.19,1.82,0.58c0.35,0.35,0.53,0.92,0.53,1.69v14.86  l5.86-7.63c0.18-0.24,0.37-0.4,0.58-0.49c0.21-0.09,0.52-0.13,0.93-0.13h6.88c0.3,0,0.52,0.09,0.67,0.27  c0.18,0.15,0.27,0.35,0.27,0.62c0,0.3-0.1,0.56-0.31,0.8l-7.59,8.7L158.05,134.25z"></path>	<path class="pk5" d="M172.46,136.6c-2.48,0-4.7-0.41-6.65-1.24c-1.92-0.83-3.45-2.07-4.57-3.73c-1.12-1.66-1.69-3.68-1.69-6.08  c0-3.76,1.06-6.63,3.19-8.61c2.13-1.98,5.19-2.97,9.18-2.97c3.9,0,6.86,0.98,8.87,2.93c2.04,1.92,3.06,4.6,3.06,8.03  c0,1.48-0.65,2.22-1.95,2.22h-13.93c0,1.27,0.47,2.25,1.42,2.93c0.98,0.68,2.44,1.02,4.39,1.02c1.21,0,2.22-0.1,3.02-0.31  c0.83-0.24,1.66-0.58,2.48-1.02c0.35-0.15,0.59-0.22,0.71-0.22c0.27,0,0.49,0.18,0.67,0.53l1.51,2.84c0.15,0.3,0.22,0.52,0.22,0.67  c0,0.27-0.18,0.52-0.53,0.75c-1.21,0.8-2.59,1.38-4.13,1.73C176.2,136.42,174.44,136.6,172.46,136.6z M175.87,122.76  c0-1.12-0.33-2-0.98-2.62c-0.65-0.62-1.63-0.93-2.93-0.93c-1.3,0-2.29,0.33-2.97,0.98c-0.68,0.62-1.02,1.48-1.02,2.57H175.87z"></path>	<path class="pk5" d="M199.06,136.6c-2.48,0-4.84-0.25-7.05-0.75c-2.22-0.53-4.01-1.27-5.37-2.22c-0.5-0.33-0.75-0.67-0.75-1.02  c0-0.24,0.09-0.49,0.27-0.75l2.17-3.46c0.24-0.35,0.47-0.53,0.71-0.53c0.15,0,0.4,0.1,0.75,0.31c1.09,0.62,2.34,1.12,3.73,1.51  c1.39,0.38,2.77,0.58,4.13,0.58c1.39,0,2.41-0.21,3.06-0.62c0.68-0.41,1.02-1.08,1.02-2c0-0.89-0.37-1.58-1.11-2.09  c-0.71-0.5-2.06-1.14-4.04-1.91c-2.99-1.12-5.32-2.38-7.01-3.77c-1.66-1.42-2.48-3.34-2.48-5.77c0-2.93,1.05-5.16,3.15-6.7  c2.1-1.54,4.89-2.31,8.39-2.31c2.43,0,4.5,0.22,6.21,0.67c1.75,0.41,3.22,1.06,4.44,1.95c0.5,0.38,0.75,0.74,0.75,1.06  c0,0.21-0.09,0.44-0.27,0.71l-2.17,3.46c-0.27,0.35-0.5,0.53-0.71,0.53c-0.15,0-0.4-0.1-0.75-0.31c-1.72-1.12-3.76-1.69-6.12-1.69  c-1.27,0-2.25,0.21-2.93,0.62c-0.68,0.41-1.02,1.09-1.02,2.04c0,0.65,0.18,1.18,0.53,1.6c0.35,0.41,0.83,0.78,1.42,1.11  c0.62,0.3,1.57,0.68,2.84,1.15l0.84,0.31c2.19,0.86,3.9,1.69,5.15,2.48c1.27,0.77,2.23,1.73,2.88,2.88  c0.65,1.12,0.98,2.54,0.98,4.26c0,2.63-0.99,4.73-2.97,6.3C205.76,135.82,202.88,136.6,199.06,136.6z"></path>	<path class="pk5" d="M220.11,135.94c-0.44,0-0.78-0.07-1.02-0.22c-0.24-0.15-0.41-0.44-0.53-0.89l-5.72-19.17  c-0.06-0.18-0.09-0.31-0.09-0.4c0-0.41,0.3-0.62,0.89-0.62h5.86c0.39,0,0.67,0.07,0.84,0.22c0.18,0.12,0.3,0.33,0.35,0.62  l2.4,10.07l3.02-8.12c0.15-0.35,0.3-0.59,0.44-0.71c0.18-0.15,0.48-0.22,0.89-0.22h2.79c0.41,0,0.7,0.07,0.84,0.22  c0.18,0.12,0.34,0.35,0.49,0.71l2.97,8.12l2.44-10.07c0.09-0.3,0.2-0.5,0.35-0.62c0.15-0.15,0.41-0.22,0.8-0.22h5.9  c0.59,0,0.89,0.21,0.89,0.62c0,0.09-0.03,0.22-0.09,0.4l-5.77,19.17c-0.12,0.44-0.3,0.74-0.53,0.89c-0.21,0.15-0.53,0.22-0.98,0.22  h-4.35c-0.41,0-0.73-0.07-0.93-0.22c-0.21-0.18-0.38-0.47-0.53-0.89l-2.93-8.03l-2.93,8.03c-0.12,0.41-0.3,0.71-0.53,0.89  c-0.21,0.15-0.52,0.22-0.93,0.22H220.11z"></path>	<path class="pk5" d="M256.16,136.6c-2.78,0-5.01-0.89-6.7-2.66c-1.66-1.8-2.48-4.33-2.48-7.59c0-2.48,0.56-4.66,1.69-6.52  c1.15-1.86,2.76-3.3,4.83-4.3c2.1-1.04,4.51-1.55,7.23-1.55c2.25,0,4.23,0.25,5.95,0.75c1.74,0.47,3.34,1.17,4.79,2.09v17.75  c0,0.56-0.1,0.93-0.31,1.11c-0.21,0.18-0.62,0.27-1.24,0.27h-4.53c-0.33,0-0.58-0.04-0.75-0.13c-0.18-0.12-0.33-0.3-0.44-0.53  l-0.58-1.33c-0.86,0.92-1.89,1.58-3.11,2C259.32,136.38,257.88,136.6,256.16,136.6z M259.49,130.57c1.15,0,2.06-0.28,2.71-0.84  c0.65-0.56,0.98-1.36,0.98-2.4v-6.92c-0.56-0.27-1.27-0.4-2.13-0.4c-1.57,0-2.82,0.55-3.77,1.64c-0.92,1.09-1.38,2.63-1.38,4.61  C255.89,129.13,257.09,130.57,259.49,130.57z"></path>	<path class="pk5" d="M277.6,144.9c-0.86,0-1.46-0.18-1.82-0.53c-0.33-0.35-0.49-0.92-0.49-1.69v-25.42c1.33-0.95,3-1.73,5.01-2.35  c2.01-0.62,4.11-0.93,6.3-0.93c8.93,0,13.4,3.79,13.4,11.36c0,3.43-0.95,6.17-2.84,8.21c-1.89,2.04-4.57,3.06-8.03,3.06  c-0.98,0-1.92-0.12-2.84-0.35c-0.89-0.24-1.63-0.56-2.22-0.98v7.41c0,0.77-0.18,1.33-0.53,1.69c-0.35,0.35-0.96,0.53-1.82,0.53  H277.6z M287.22,130.61c1.27,0,2.22-0.47,2.84-1.42c0.65-0.98,0.98-2.28,0.98-3.9c0-1.92-0.38-3.27-1.15-4.04  c-0.74-0.8-1.89-1.2-3.46-1.2c-1.01,0-1.81,0.13-2.4,0.4v7.05c0,1.01,0.28,1.77,0.84,2.31  C285.43,130.35,286.22,130.61,287.22,130.61z"></path></g></svg>