<svg width="50" height="31" viewBox="0 0 50 31" fill="none" xmlns="http://www.w3.org/2000/svg">
<path d="M25 0C18.3334 0 14.1666 3.37697 12.5 10.1307C15 6.75375 17.9166 5.48741 21.25 6.3317C23.1518 6.8133 24.5111 8.21122 26.0158 9.75834C28.467 12.2789 31.3037 15.1961 37.5 15.1961C44.1666 15.1961 48.3334 11.8191 50 5.06536C47.5 8.44233 44.5834 9.70867 41.25 8.86438C39.3482 8.38277 37.9889 6.98485 36.4842 5.43774C34.033 2.91713 31.1963 0 25 0ZM12.5 15.1961C5.8334 15.1961 1.6666 18.573 0 25.3268C2.5 21.9498 5.4166 20.6835 8.75 21.5278C10.6518 22.0094 12.0111 23.4073 13.5158 24.9544C15.967 27.475 18.8037 30.3922 25 30.3922C31.6666 30.3922 35.8334 27.0152 37.5 20.2614C35 23.6384 32.0834 24.9047 28.75 24.0605C26.8482 23.5789 25.4889 22.1809 23.9842 20.6338C21.533 18.1132 18.6963 15.1961 12.5 15.1961Z" fill="url(#paint0_linear_113_20)"/>
<defs>
<linearGradient id="paint0_linear_113_20" x1="-1.389" y1="9.72549" x2="42.0722" y2="34.4611" gradientUnits="userSpaceOnUse">
<stop stop-color="#2298BD"/>
<stop offset="1" stop-color="#0ED7B5"/>
</linearGradient>
</defs>
</svg>
