<svg xmlns="http://www.w3.org/2000/svg" id="Layer_1" data-name="Layer 1" width="5.8315in" height="6.0756in" viewBox="0 0 419.8706 437.4465"><defs><style>.cls-1{fill:#00b3ff;}.cls-2{fill:#a4aeba;}</style></defs><path class="cls-1" d="M87.4438,15.9809c7.91-15.31,28.97-20.26,43.66-12.05,5.87,2.88,10.17,8.26,12.85,14.12a45.2066,45.2066,0,0,1,2.63,15.12v192.05c-.13,33.93.24,67.87-.19,101.8a36.8348,36.8348,0,0,1,3.59-4.57c9.17-9.84,18.16-19.85,27.24-29.78,5.95-6.21,14.07-10.7,22.74-11.3,7.95-.02,15.56,3.32,21.79,8.09,7.56,6.93,11.7,17.64,10.08,27.86-.91,8.85-6.36,16.33-12.51,22.41q-35.595,38.91-71.29,77.74c-4.57,4.74-8.69,9.94-13.75,14.19a29.4607,29.4607,0,0,1-18.35,5.75c-9.24.22-18.1-4.29-24.3-10.99q-41.415-45.57-82.73-91.24c-5.74-6.14-9.56-14.47-8.81-23-.57-16.79,15.35-31.34,31.82-30.9,8.81.03,16.72,5.07,22.5,11.38q11.73,13.29,23.45,26.57a57.4476,57.4476,0,0,1,6.41,7.76c-.44-31.26-.07-62.53-.19-93.79q0-99.48-.01-198.94C84.1138,28.0609,84.4338,21.5609,87.4438,15.9809Z"></path><path class="cls-2" d="M279.3638,10.8209c10.14-11.66,28.76-14.28,41.72-5.86,5.27,3.29,9.11,8.28,13.25,12.81q38.25,42.24,76.56,84.43c4.59,4.97,8.45,11.08,8.9,18,.62,9.86-2.5,20.39-9.88,27.23-5.71,4.57-12.63,8-19.99,8.63-7.57.68-15.07-2.35-20.85-7.1a127.667,127.667,0,0,1-9.87-10.14c-8.39-9.3-16.99-18.42-25.23-27.85.26,97.42.02,194.84.12,292.25.16,9.57-2.34,19.88-9.84,26.37-12.78,11.48-34.7,10.28-45.82-2.96-5.73-6.33-7.06-15.2-6.86-23.44.09-97.41-.13-194.82.12-292.22-9.34,10.67-19.08,20.98-28.58,31.52-6.2,6.67-14.16,12.45-23.45,13.51-8.79.72-17.25-3.15-24.02-8.48-6.45-5.86-9.8-14.64-9.96-23.26.2-7.8,4.2-15.1,9.54-20.61Q237.2988,57.2259,279.3638,10.8209Z"></path></svg>