<svg xmlns="http://www.w3.org/2000/svg" xmlns:xlink="http://www.w3.org/1999/xlink" viewBox="0 0 1534.38 786.86"><defs><style>.cls-1{fill:url(#linear-gradient);}.cls-2{fill:url(#linear-gradient-2);}.cls-3{fill:url(#linear-gradient-3);}.cls-4{fill:url(#linear-gradient-4);}</style><linearGradient id="linear-gradient" y1="393.12" x2="311.64" y2="393.12" gradientUnits="userSpaceOnUse"><stop offset="0" stop-color="#ff8906"/><stop offset="1" stop-color="#f25f4c"/></linearGradient><linearGradient id="linear-gradient-2" x1="86.78" y1="393.12" x2="653.76" y2="393.12" xlink:href="#linear-gradient"/><linearGradient id="linear-gradient-3" x1="780.48" y1="393.43" x2="1356.77" y2="393.43" xlink:href="#linear-gradient"/><linearGradient id="linear-gradient-4" x1="1179.15" y1="653.95" x2="1534.38" y2="653.95" xlink:href="#linear-gradient"/></defs><title>Asset 4</title><g id="Layer_2" data-name="Layer 2"><g id="Layer_1-2" data-name="Layer 1"><path class="cls-1" d="M311.64.37,283.48,87,136.07,540.69l-50,153.83a253.58,253.58,0,0,0-7.9,24.26.31.31,0,0,1,0,.13L56.29,786.24H0L28,700l6.33-19.52L255.33.35l.12-.35h56.07Z"/><path class="cls-2" d="M625.73,700c0-.1-.05-.19-.09-.29l-6.24-19.23s0-.07,0-.1a.47.47,0,0,0,0-.09L398.43.37v0L398.31,0H342.24l-.12.37L326.88,47.3l-28.15,86.63L175,514.82,146.55,602.3l-32.43,99.76-8.83,27.19-18.51,57h56.3l14.47-44.59a172.28,172.28,0,0,1,6.2-19,175.11,175.11,0,0,1,326.23-.1.54.54,0,0,0,0,.1,171.08,171.08,0,0,1,6.13,18.83,1,1,0,0,1,.07.18l14.47,44.59H567l-18.51-57a.87.87,0,0,1-.05-.19l-8.77-26.95s0,0,0-.05a228.85,228.85,0,0,0-333.4-110.18l12.89-39.69h0A257.88,257.88,0,0,1,567.67,694.52s0,.08.05.11a249.35,249.35,0,0,1,7.85,24.15.31.31,0,0,0,0,.13l21.87,67.33h56.29ZM326.88,475.27a311.15,311.15,0,0,0-86.74,12.25l86.74-267,86.74,267A311.15,311.15,0,0,0,326.88,475.27Zm151.91,39.55L355,133.93v0L370.28,87l147.41,453.7A312,312,0,0,0,478.79,514.82Z"/><path class="cls-3" d="M1356.77,274.52a273.26,273.26,0,0,1-48.35,155.63q-5.76,8.37-12.14,16.29a275.73,275.73,0,0,1-42.9,42.75l-.53.42A273.71,273.71,0,0,1,1203.17,521a270.86,270.86,0,0,1-57.76,20.69,274.53,274.53,0,0,1-63.17,7.32H867.66V727.4H927V608.51h59.28V786.86H808.38V489.61H1110.3l-1.13-1.67A214.47,214.47,0,0,0,1220,439.68q5.51-4.59,10.67-9.53a215.82,215.82,0,0,0,30.35-36,211.44,211.44,0,0,0,13.63-23.44A215.12,215.12,0,0,0,1082.24,59.46h-190l7,10.43L927,111l5.32,7.91.61.91.93-.91h141.83l.1.15q3.23-.15,6.5-.15a155.53,155.53,0,0,1,122.35,251.78,153.15,153.15,0,0,1-18,19.3,154.86,154.86,0,0,1-104.32,40.16q-6.23,0-12.32-.48l.33.48H808.38V370.69h293.51l-1.2-1.76a96.22,96.22,0,0,0,77.72-94.41c0-1,0-2.09-.06-3.12h0a96.07,96.07,0,0,0-96.11-93H900.63l-6-9-26.93-40-7.08-10.5-2.22-3.3L820.53,59.46,808.38,41.41,780.48,0h301.76a274.28,274.28,0,0,1,274.53,274.52Z"/><polygon class="cls-4" points="1534.38 786.86 1319.33 786.86 1279.27 727.4 1239.23 667.96 1199.18 608.51 1179.15 578.77 1250.84 578.77 1270.87 608.51 1310.92 667.96 1350.97 727.4 1422.65 727.4 1382.6 667.96 1302.5 549.05 1283.64 521.04 1355.33 521.04 1374.19 549.05 1454.29 667.96 1494.34 727.4 1534.38 786.86"/></g></g></svg>